<svg xmlns="http://www.w3.org/2000/svg" viewBox="0 0 522.47 392.02"><title>code</title><g id="레이어_2" data-name="레이어 2"><g id="Capa_1" data-name="Capa 1"><path d="M325.76,5.29,308.06.43a8,8,0,0,0-6.71.71,9.28,9.28,0,0,0-4.43,5.57L190.43,375.3a8.55,8.55,0,0,0,.71,7,9.27,9.27,0,0,0,5.57,4.42l17.7,4.86a8,8,0,0,0,6.71-.71,9.3,9.3,0,0,0,4.43-5.56L332,16.71a8.56,8.56,0,0,0-.72-7A9.27,9.27,0,0,0,325.76,5.29Z"/><path d="M166.17,77.24a9,9,0,0,0-2.86-6.57L149,56.4a9,9,0,0,0-13.13,0l-133,133a9,9,0,0,0,0,13.13l133,133a9,9,0,0,0,13.13,0l14.28-14.27a9,9,0,0,0,0-13.13L51.11,196l112.2-112.2A9,9,0,0,0,166.17,77.24Z"/><path d="M519.61,189.44l-133-133a9,9,0,0,0-13.13,0L359.16,70.67a9,9,0,0,0,0,13.13L471.37,196,359.16,308.22a9,9,0,0,0,0,13.13l14.27,14.27a9,9,0,0,0,13.13,0l133-133a9,9,0,0,0,0-13.14Z"/></g></g></svg>