<svg xmlns="http://www.w3.org/2000/svg" viewBox="0 0 292.36 438.54"><title>italic</title><g id="레이어_2" data-name="레이어 2"><g id="Capa_1" data-name="Capa 1"><path d="M282.08.71q-10,.72-19.42,1.29-42.26,2.56-61.1,2.57-9.71,0-20.84-.57L90.22,0,84.8,29.41a105.36,105.36,0,0,0,10.85,1.14q29.4,1.71,41.11,8V49.39l-2.28,14.27-6.28,38.54-4.57,18L115.34,165a29.11,29.11,0,0,1-1,3.29q-1,3-2.57,8.71t-3.57,13.28q-2,7.56-4.57,19.13t-4.85,24.12l-3.43,18.27-16,76.52L71.66,368Q68.23,386.3,60,396.85,48.53,402.57,26.83,408l-22,5.71L0,438q6.85-.57,28-2.57,38-3.42,49.68-3.14l56.53.57q36,3.72,41.39,4.86a57.6,57.6,0,0,0,8,.86q5.14,0,12-.57a45.07,45.07,0,0,1,6.57-.28q.57-2.85,2.57-11.71a99.33,99.33,0,0,0,2-16.56q-8.57-1.42-18.85-2.85a286.65,286.65,0,0,1-34-6q-.85-5.71-.28-7.71L157,380l12.28-67.09,10.85-45.11L197.57,179q6.27-30.55,18.85-87.37,1.14-10.85,3.71-23.41Q223.55,52,227,43.12a226.24,226.24,0,0,1,28.84-8.85,282.75,282.75,0,0,0,31.12-8.85q1.72-6.28,3.72-14.56A104.33,104.33,0,0,0,292.36,0Q292.08,0,282.08.71Z"/></g></g></svg>