<svg xmlns="http://www.w3.org/2000/svg" viewBox="0 0 507.34 509.05"><title>list-numeric</title><g id="레이어_2" data-name="레이어 2"><g id="Capa_1" data-name="Capa 1"><path d="M74.52,0H44.26L5.43,36.26,25.7,58Q37.69,47.4,40,42.54h.57V46q0,11.42-.14,34.54t-.14,34.83H9.71v28.27h95.65V115.34H74.52Z"/><path d="M504.63,73.23a8.8,8.8,0,0,0-6.43-2.71H151a9.26,9.26,0,0,0-9.13,9.14v54.82a9.26,9.26,0,0,0,9.13,9.14H498.21a9.25,9.25,0,0,0,9.13-9.14V79.66A8.76,8.76,0,0,0,504.63,73.23Z"/><path d="M72.81,420.83,99.93,388V362.88H4.86v43.4H35.12V391.14q4.57,0,13.85-.28t13.85-.29v.29q-5.43,5.14-10.57,11T40.11,417.26q-7,9.57-9.27,12.42l7.42,16q30-2.29,30,16,0,8-6.14,12.13a25.11,25.11,0,0,1-14.42,4.14q-16.27,0-30.26-12.85L1.14,490.21Q20,509.05,50.25,509.05q23.12,0,38.69-13.13t15.56-36a38.71,38.71,0,0,0-8.56-25.13Q87.37,424.27,72.81,420.83Z"/><path d="M75.09,298.07H38.83q.29-7.14,10.14-15a160.55,160.55,0,0,1,21.55-14.42,75.83,75.83,0,0,0,21.41-18.41q9.71-11.85,9.71-26.12,0-20.27-14.27-32.12T52.25,180.16a57.42,57.42,0,0,0-30.12,8.14A51.34,51.34,0,0,0,1.71,211L26,227.84q10-16.56,23.12-16.56,7.14,0,11.28,3.85t4.14,11q0,6.57-6.71,12.85a117.29,117.29,0,0,1-16.13,12.42Q32.26,257.53,22.84,265A64.21,64.21,0,0,0,6.71,284.37,53.47,53.47,0,0,0,0,310.92a103.28,103.28,0,0,0,1.71,15.42H105.06v-45.4h-30Z"/><path d="M498.2,362.88H151A8.79,8.79,0,0,0,141.9,372v54.82A9.25,9.25,0,0,0,151,436H498.21a9.25,9.25,0,0,0,9.13-9.13V372a9.26,9.26,0,0,0-9.14-9.13Z"/><path d="M498.2,216.7H151a8.79,8.79,0,0,0-9.13,9.13v54.82a9.26,9.26,0,0,0,9.13,9.14H498.21a9.26,9.26,0,0,0,9.13-9.14V225.83a9.25,9.25,0,0,0-9.14-9.14Z"/></g></g></svg>