<svg xmlns="http://www.w3.org/2000/svg" viewBox="0 0 401.99 438.54"><title>bold</title><g id="레이어_2" data-name="레이어 2"><g id="Capa_1" data-name="Capa 1"><path d="M375.73,235.54q-25.7-30-76.23-41.68,35.42-16.28,42.83-22,18-13.42,27.11-30a74.38,74.38,0,0,0,9.13-36.54,99.9,99.9,0,0,0-6-34.83A87.41,87.41,0,0,0,354,40.83a107.76,107.76,0,0,0-29.12-21.7A184.7,184.7,0,0,0,297.49,8Q268.09.28,243,.28H221.84q-5.71,0-11.57-.14L204.14,0c-.95,0-2.28.05-4,.14s-3,.14-4,.14L183.29.57,74.8,4.28.57,6,1.71,29.69q24,3.14,32.55,3.71,14.56.86,19.7,4.28Q57.1,40,57.39,41.12q2.85,6.28,3.14,31.12,1.14,42.26,2.57,115.34l.57,141.9q0,36.54-2.57,55.39a40.13,40.13,0,0,1-6,14.56Q42,404.85,20,408.28q-6.56.85-19.41,3.43L0,438.54q68.23-2.29,77.66-3.14,61.09-3.72,85.08-3.14L219,433.4q33.13,1.14,56.53-3.14,37.11-6.85,58-17.14,21.12-10.28,40-30.83,14.29-15.7,20.27-33.41,8.28-24.26,8.28-46Q402,265.81,375.73,235.54ZM152.18,33.13q22.27-3.71,37.12-3.71,48.82,0,72.81,21.41,24.25,21.41,24.26,53.39,0,45.4-25.41,64t-75.37,18.56q-18.84,0-31.12-2-.29-9.71-.29-22l.29-28q.28-44.82-1.71-79.66Q152.18,45.69,152.18,33.13ZM294.93,362.88q-10.56,20.55-34.83,32.26t-61.67,11.7q-18.27,0-40-9.13Q155,389.44,155,385.15l-.85-77.09.29-49.39V217.56q7.71-2.85,28.84-2.85,47.68,0,70.52,9.13,23.7,9.14,40.26,36,11.7,18.85,11.7,51.39Q305.78,342.89,294.93,362.88Z"/></g></g></svg>