<svg xmlns="http://www.w3.org/2000/svg" viewBox="0 0 511.63 401.99"><title>list-bullet</title><g id="레이어_2" data-name="레이어 2"><g id="Capa_1" data-name="Capa 1"><path d="M54.82,146.18q-22.84,0-38.83,16T0,201q0,22.83,16,38.83t38.83,16q22.84,0,38.83-16t16-38.83q0-22.84-16-38.83T54.82,146.18Z"/><path d="M54.82,0Q32,0,16,16T0,54.82Q0,77.66,16,93.65t38.83,16q22.84,0,38.83-16t16-38.83q0-22.84-16-38.83T54.82,0Z"/><path d="M54.82,292.36q-22.84,0-38.83,16T0,347.17Q0,370,16,386t38.83,16q22.84,0,38.83-16t16-38.83q0-22.83-16-38.83T54.82,292.36Z"/><path d="M508.92,21a8.8,8.8,0,0,0-6.43-2.71H155.31A8.78,8.78,0,0,0,148.89,21a8.79,8.79,0,0,0-2.71,6.42V82.23a9.26,9.26,0,0,0,9.14,9.13H502.49a9.25,9.25,0,0,0,9.14-9.13V27.41A8.79,8.79,0,0,0,508.92,21Z"/><path d="M502.49,164.45H155.31a9.26,9.26,0,0,0-9.14,9.14v54.82a9.27,9.27,0,0,0,9.14,9.13H502.49a9.26,9.26,0,0,0,9.14-9.13V173.59a9.26,9.26,0,0,0-9.14-9.14Z"/><path d="M502.49,310.63H155.31a9.27,9.27,0,0,0-9.14,9.13v54.82a9.25,9.25,0,0,0,9.14,9.13H502.49a9.25,9.25,0,0,0,9.14-9.13V319.76a9.26,9.26,0,0,0-9.14-9.13Z"/></g></g></svg>