<svg xmlns="http://www.w3.org/2000/svg" viewBox="0 0 475.08 401.99"><title>quotes</title><g id="레이어_2" data-name="레이어 2"><g id="Capa_1" data-name="Capa 1"><path d="M164.45,0H54.82Q32,0,16,16T0,54.82V164.45q0,22.84,16,38.83t38.83,16h64a27.29,27.29,0,0,1,27.41,27.41v9.13q0,30.27-21.41,51.67T73.09,328.89H54.82A17.58,17.58,0,0,0,42,334.32a17.56,17.56,0,0,0-5.42,12.85v36.55A17.58,17.58,0,0,0,42,396.56,17.58,17.58,0,0,0,54.82,402H73.09a142.44,142.44,0,0,0,56.68-11.57,147.26,147.26,0,0,0,46.68-31.27,147.32,147.32,0,0,0,31.26-46.68,142.41,142.41,0,0,0,11.56-56.67v-201q0-22.85-16-38.83T164.45,0Z"/><path d="M459.09,16q-16-16-38.83-16H310.63Q287.79,0,271.8,16t-16,38.83V164.45q0,22.84,16,38.83t38.83,16h64A27.29,27.29,0,0,1,402,246.68v9.13q0,30.27-21.42,51.67T328.9,328.89H310.63a18.54,18.54,0,0,0-18.27,18.27v36.55A18.54,18.54,0,0,0,310.63,402H328.9a142.45,142.45,0,0,0,56.67-11.57,144.81,144.81,0,0,0,77.94-77.94,142.41,142.41,0,0,0,11.56-56.67v-201Q475.08,32,459.09,16Z"/></g></g></svg>